<svg version="1.1" id="Layer_1" xmlns="http://www.w3.org/2000/svg" xmlns:xlink="http://www.w3.org/1999/xlink" x="0px" y="0px"
	 width="100%" viewBox="0 0 7200 4800" enable-background="new 0 0 7200 4800" xml:space="preserve">
<path fill="none" opacity="1.000000" stroke="#000000" stroke-linecap="round" stroke-linejoin="round" stroke-width="2.000000"
	d="
M3558.000000,3070.000000 
	C3446.666748,3070.000000 3335.304932,3068.614502 3224.018311,3070.891602 
	C3192.882080,3071.528564 3161.097900,3075.580566 3129.905273,3081.501465 
	C3114.345459,3084.455322 3097.688965,3080.933594 3082.000000,3086.000000 
"/>
<path fill="none" opacity="1.000000" stroke="#000000" stroke-linecap="round" stroke-linejoin="round" stroke-width="3.000000"
	d="
M3194.000000,3034.000000 
	C3315.983643,3030.361084 3438.000000,3032.687988 3562.000000,3031.841309 
	C3562.000000,3063.972168 3561.999756,3095.986084 3562.000488,3128.000000 
	C3562.000732,3130.885986 3561.326904,3134.226562 3566.000000,3134.000000 
"/>
<path fill="none" opacity="1.000000" stroke="#000000" stroke-linecap="round" stroke-linejoin="round" stroke-width="2.000000"
	d="
M4338.000000,2092.000000 
	C4338.000000,2140.000000 4338.000000,2188.000000 4338.000000,2237.000000 
	C4253.343750,2237.000000 4168.671875,2237.000000 4083.000000,2237.000000 
	C4083.000000,2177.347900 4083.000000,2116.674072 4083.000000,2055.000000 
	C4166.656250,2055.000000 4251.328125,2055.000000 4338.195801,2055.000000 
	C4336.909180,2066.000000 4340.097656,2078.000000 4336.000000,2090.000000 
"/>
<path fill="none" opacity="1.000000" stroke="#000000" stroke-linecap="round" stroke-linejoin="round" stroke-width="2.000000"
	d="
M4738.000000,2092.000000 
	C4738.000000,2140.000000 4738.000000,2188.000000 4738.000000,2237.000000 
	C4653.343750,2237.000000 4568.671875,2237.000000 4483.000000,2237.000000 
	C4483.000000,2177.347900 4483.000000,2116.674072 4483.000000,2055.000000 
	C4566.656250,2055.000000 4651.328125,2055.000000 4738.195801,2055.000000 
	C4736.909180,2066.000000 4740.097656,2078.000000 4736.000000,2090.000000 
"/>
<path fill="none" opacity="1.000000" stroke="#000000" stroke-linecap="round" stroke-linejoin="round" stroke-width="2.000000"
	d="
M2926.000000,2524.000000 
	C2926.000000,2513.333252 2926.000000,2502.666748 2926.000000,2490.000000 
	C2912.062256,2490.000000 2897.937744,2490.000000 2883.000000,2490.000000 
	C2883.000000,2477.416260 2883.000000,2466.708252 2883.000000,2455.000000 
	C2966.656250,2455.000000 3051.328125,2455.000000 3137.000000,2455.000000 
	C3137.000000,2514.652100 3137.000000,2575.325928 3137.000000,2637.000000 
	C3053.343750,2637.000000 2968.671875,2637.000000 2881.905273,2637.000000 
	C2883.521973,2589.333252 2879.580811,2540.666748 2884.000000,2492.000000 
"/>
<path fill="none" opacity="1.000000" stroke="#000000" stroke-linecap="round" stroke-linejoin="round" stroke-width="2.000000"
	d="
M3326.000000,2524.000000 
	C3326.000000,2513.333252 3326.000000,2502.666748 3326.000000,2490.000000 
	C3312.062256,2490.000000 3297.937744,2490.000000 3283.000000,2490.000000 
	C3283.000000,2477.416260 3283.000000,2466.708252 3283.000000,2455.000000 
	C3366.656250,2455.000000 3451.328125,2455.000000 3537.000000,2455.000000 
	C3537.000000,2514.652100 3537.000000,2575.325928 3537.000000,2637.000000 
	C3453.343750,2637.000000 3368.671875,2637.000000 3281.905273,2637.000000 
	C3283.521973,2589.333252 3279.580811,2540.666748 3284.000000,2492.000000 
"/>
<path fill="none" opacity="1.000000" stroke="#000000" stroke-linecap="round" stroke-linejoin="round" stroke-width="2.000000"
	d="
M2526.000000,2524.000000 
	C2526.000000,2513.333252 2526.000000,2502.666748 2526.000000,2490.000000 
	C2512.062256,2490.000000 2497.937744,2490.000000 2483.000000,2490.000000 
	C2483.000000,2477.416260 2483.000000,2466.708252 2483.000000,2455.000000 
	C2566.656250,2455.000000 2651.328125,2455.000000 2737.000000,2455.000000 
	C2737.000000,2514.652100 2737.000000,2575.325928 2737.000000,2637.000000 
	C2653.343750,2637.000000 2568.671875,2637.000000 2481.905273,2637.000000 
	C2483.521973,2589.333252 2479.580811,2540.666748 2484.000000,2492.000000 
"/>
<path fill="none" opacity="1.000000" stroke="#000000" stroke-linecap="round" stroke-linejoin="round" stroke-width="2.000000"
	d="
M2738.000000,2092.000000 
	C2738.000000,2140.000000 2738.000000,2188.000000 2738.000000,2237.000000 
	C2653.343750,2237.000000 2568.671875,2237.000000 2483.000000,2237.000000 
	C2483.000000,2177.347900 2483.000000,2116.674072 2483.000000,2055.000000 
	C2566.656250,2055.000000 2651.328125,2055.000000 2738.196045,2055.000000 
	C2736.909424,2066.000000 2740.097900,2078.000000 2736.000000,2090.000000 
"/>
<path fill="none" opacity="1.000000" stroke="#000000" stroke-linecap="round" stroke-linejoin="round" stroke-width="2.000000"
	d="
M3138.000000,2092.000000 
	C3138.000000,2140.000000 3138.000000,2188.000000 3138.000000,2237.000000 
	C3053.343750,2237.000000 2968.671875,2237.000000 2883.000000,2237.000000 
	C2883.000000,2177.347900 2883.000000,2116.674072 2883.000000,2055.000000 
	C2966.656250,2055.000000 3051.328125,2055.000000 3138.196045,2055.000000 
	C3136.909424,2066.000000 3140.097900,2078.000000 3136.000000,2090.000000 
"/>
<path fill="none" opacity="1.000000" stroke="#000000" stroke-linecap="round" stroke-linejoin="round" stroke-width="2.000000"
	d="
M3538.000000,2092.000000 
	C3538.000000,2140.000000 3538.000000,2188.000000 3538.000000,2237.000000 
	C3453.343750,2237.000000 3368.671875,2237.000000 3283.000000,2237.000000 
	C3283.000000,2177.347900 3283.000000,2116.674072 3283.000000,2055.000000 
	C3366.656250,2055.000000 3451.328125,2055.000000 3538.196045,2055.000000 
	C3536.909424,2066.000000 3540.097900,2078.000000 3536.000000,2090.000000 
"/>
<path fill="none" opacity="1.000000" stroke="#000000" stroke-linecap="round" stroke-linejoin="round" stroke-width="2.000000"
	d="
M3938.000000,2092.000000 
	C3938.000000,2140.000000 3938.000000,2188.000000 3938.000000,2237.000000 
	C3853.343750,2237.000000 3768.671875,2237.000000 3683.000000,2237.000000 
	C3683.000000,2177.347900 3683.000000,2116.674072 3683.000000,2055.000000 
	C3766.656250,2055.000000 3851.328125,2055.000000 3938.196045,2055.000000 
	C3936.909424,2066.000000 3940.097900,2078.000000 3936.000000,2090.000000 
"/>
<path fill="none" opacity="1.000000" stroke="#000000" stroke-linecap="round" stroke-linejoin="round" stroke-width="2.000000"
	d="
M4526.000000,2524.000000 
	C4526.000000,2513.333252 4526.000000,2502.666748 4526.000000,2490.000000 
	C4512.062500,2490.000000 4497.937500,2490.000000 4483.000000,2490.000000 
	C4483.000000,2477.416260 4483.000000,2466.708252 4483.000000,2455.000000 
	C4566.656250,2455.000000 4651.328125,2455.000000 4737.000000,2455.000000 
	C4737.000000,2514.652100 4737.000000,2575.325928 4737.000000,2637.000000 
	C4653.343750,2637.000000 4568.671875,2637.000000 4481.905273,2637.000000 
	C4483.521973,2589.333252 4479.581055,2540.666748 4484.000000,2492.000000 
"/>
<path fill="none" opacity="1.000000" stroke="#000000" stroke-linecap="round" stroke-linejoin="round" stroke-width="2.000000"
	d="
M4126.000000,2524.000000 
	C4126.000000,2513.333252 4126.000000,2502.666748 4126.000000,2490.000000 
	C4112.062500,2490.000000 4097.937500,2490.000000 4083.000000,2490.000000 
	C4083.000000,2477.416260 4083.000000,2466.708252 4083.000000,2455.000000 
	C4166.656250,2455.000000 4251.328125,2455.000000 4337.000000,2455.000000 
	C4337.000000,2514.652100 4337.000000,2575.325928 4337.000000,2637.000000 
	C4253.343750,2637.000000 4168.671875,2637.000000 4081.905273,2637.000000 
	C4083.521973,2589.333252 4079.580811,2540.666748 4084.000000,2492.000000 
"/>
<path fill="none" opacity="1.000000" stroke="#000000" stroke-linecap="round" stroke-linejoin="round" stroke-width="2.000000"
	d="
M3726.000000,2524.000000 
	C3726.000000,2513.333252 3726.000000,2502.666748 3726.000000,2490.000000 
	C3712.062256,2490.000000 3697.937744,2490.000000 3683.000000,2490.000000 
	C3683.000000,2477.416260 3683.000000,2466.708252 3683.000000,2455.000000 
	C3766.656250,2455.000000 3851.328125,2455.000000 3937.000000,2455.000000 
	C3937.000000,2514.652100 3937.000000,2575.325928 3937.000000,2637.000000 
	C3853.343750,2637.000000 3768.671875,2637.000000 3681.905273,2637.000000 
	C3683.521973,2589.333252 3679.580811,2540.666748 3684.000000,2492.000000 
"/>
<path fill="none" opacity="1.000000" stroke="#000000" stroke-linecap="round" stroke-linejoin="round" stroke-width="2.000000"
	d="
M4790.000000,3102.000000 
	C4790.000000,3058.000000 4790.027832,3014.000000 4789.979492,2970.000000 
	C4789.968750,2960.174316 4791.792480,2948.878418 4776.000000,2950.000000 
"/>
<path fill="none" opacity="1.000000" stroke="#000000" stroke-linecap="round" stroke-linejoin="round" stroke-width="2.000000"
	d="
M2790.000000,3102.000000 
	C2790.000000,3058.000000 2790.027344,3014.000000 2789.979004,2970.000000 
	C2789.968262,2960.174316 2791.792480,2948.878418 2776.000000,2950.000000 
"/>
<path fill="none" opacity="1.000000" stroke="#000000" stroke-linecap="round" stroke-linejoin="round" stroke-width="2.000000"
	d="
M3028.000000,2878.000000 
	C3081.341797,2878.000000 3134.683350,2878.000000 3190.000000,2878.000000 
	C3190.000000,2929.316650 3190.000000,2982.658447 3190.000000,3038.208496 
	C3153.007080,3035.743408 3117.071289,3047.116455 3078.000000,3045.919678 
	C3078.000000,3075.302979 3078.250977,3104.655762 3077.768066,3133.996094 
	C3077.681396,3139.260254 3081.876465,3146.302490 3074.000000,3150.000000 
"/>
<path fill="none" opacity="1.000000" stroke="#000000" stroke-linecap="round" stroke-linejoin="round" stroke-width="2.000000"
	d="
M4436.000000,2880.000000 
	C4434.297363,2928.699219 4434.204102,2977.257324 4436.349121,3026.072510 
	C4437.427734,3050.618652 4435.924805,3076.697754 4434.000000,3102.000000 
"/>
<path fill="none" opacity="1.000000" stroke="#000000" stroke-linecap="round" stroke-linejoin="round" stroke-width="2.000000"
	d="
M4036.000000,2880.000000 
	C4031.779297,2927.283203 4035.144287,2974.671387 4034.105469,3022.002197 
	C4033.520508,3048.656250 4034.000000,3075.333252 4034.000000,3102.000000 
"/>
<path fill="none" opacity="1.000000" stroke="#000000" stroke-linecap="round" stroke-linejoin="round" stroke-width="2.000000"
	d="
M3990.000000,3106.000000 
	C3990.000000,3029.327637 3990.000000,2952.655029 3990.000000,2876.000000 
	C3869.318359,2876.000000 3750.647949,2876.000000 3634.000000,2876.000000 
	C3634.000000,2949.988281 3634.000000,3025.994141 3634.000000,3102.000000 
"/>
<path fill="none" opacity="1.000000" stroke="#000000" stroke-linecap="round" stroke-linejoin="round" stroke-width="2.000000"
	d="
M2836.000000,2880.000000 
	C2831.779297,2927.283203 2835.144287,2974.671387 2834.105469,3022.002197 
	C2833.520508,3048.656250 2834.000000,3075.333252 2834.000000,3102.000000 
"/>
<path fill="none" opacity="1.000000" stroke="#000000" stroke-linecap="round" stroke-linejoin="round" stroke-width="2.000000"
	d="
M2436.000000,2880.000000 
	C2434.297363,2928.699219 2434.202881,2977.257324 2436.348633,3026.072510 
	C2437.427002,3050.618652 2435.924805,3076.697754 2434.000000,3102.000000 
"/>
<path fill="none" opacity="1.000000" stroke="#000000" stroke-linecap="round" stroke-linejoin="round" stroke-width="3.000000"
	d="
M4386.000000,2850.000000 
	C4315.625977,2823.338623 4242.270020,2815.042480 4168.059082,2820.766357 
	C4120.857422,2824.406982 4073.496338,2832.505127 4030.000000,2854.000000 
"/>
<path fill="none" opacity="1.000000" stroke="#000000" stroke-linecap="round" stroke-linejoin="round" stroke-width="3.000000"
	d="
M3186.000000,2850.000000 
	C3115.671143,2823.011963 3042.246338,2815.177002 2968.059082,2820.780762 
	C2920.857910,2824.346191 2873.496338,2832.505127 2830.000000,2854.000000 
"/>
<path fill="none" opacity="1.000000" stroke="#000000" stroke-linecap="round" stroke-linejoin="round" stroke-width="3.000000"
	d="
M3986.000000,2850.000000 
	C3953.704590,2834.646484 3918.565674,2830.014893 3883.946045,2824.328369 
	C3846.255127,2818.137207 3808.141846,2819.234863 3769.983398,2821.746826 
	C3724.481689,2824.742188 3680.267822,2832.501221 3638.000000,2850.000000 
"/>
<path fill="none" opacity="1.000000" stroke="#000000" stroke-linecap="round" stroke-linejoin="round" stroke-width="3.000000"
	d="
M3586.000000,2850.000000 
	C3554.337158,2834.907959 3519.890137,2829.918213 3485.931152,2824.426025 
	C3447.626953,2818.231201 3408.825195,2819.017578 3369.979980,2821.711670 
	C3324.493164,2824.866455 3280.267822,2832.501221 3238.000000,2850.000000 
"/>
<path fill="none" opacity="1.000000" stroke="#000000" stroke-linecap="round" stroke-linejoin="round" stroke-width="2.000000"
	d="
M2526.000000,2128.000000 
	C2526.000000,2164.000000 2526.000000,2200.000000 2526.000000,2236.000000 
"/>
<path fill="none" opacity="1.000000" stroke="#000000" stroke-linecap="round" stroke-linejoin="round" stroke-width="2.000000"
	d="
M3726.000000,2528.000000 
	C3726.000000,2564.000000 3726.000000,2600.000000 3726.000000,2636.000000 
"/>
<path fill="none" opacity="1.000000" stroke="#000000" stroke-linecap="round" stroke-linejoin="round" stroke-width="2.000000"
	d="
M4126.000000,2528.000000 
	C4126.000000,2564.000000 4126.000000,2600.000000 4126.000000,2636.000000 
"/>
<path fill="none" opacity="1.000000" stroke="#000000" stroke-linecap="round" stroke-linejoin="round" stroke-width="2.000000"
	d="
M4526.000000,2528.000000 
	C4526.000000,2564.000000 4526.000000,2600.000000 4526.000000,2636.000000 
"/>
<path fill="none" opacity="1.000000" stroke="#000000" stroke-linecap="round" stroke-linejoin="round" stroke-width="2.000000"
	d="
M2926.000000,2128.000000 
	C2926.000000,2164.000000 2926.000000,2200.000000 2926.000000,2236.000000 
"/>
<path fill="none" opacity="1.000000" stroke="#000000" stroke-linecap="round" stroke-linejoin="round" stroke-width="2.000000"
	d="
M4126.000000,2128.000000 
	C4126.000000,2164.000000 4126.000000,2200.000000 4126.000000,2236.000000 
"/>
<path fill="none" opacity="1.000000" stroke="#000000" stroke-linecap="round" stroke-linejoin="round" stroke-width="2.000000"
	d="
M3726.000000,2128.000000 
	C3726.000000,2164.000000 3726.000000,2200.000000 3726.000000,2236.000000 
"/>
<path fill="none" opacity="1.000000" stroke="#000000" stroke-linecap="round" stroke-linejoin="round" stroke-width="2.000000"
	d="
M3326.000000,2128.000000 
	C3326.000000,2164.000000 3326.000000,2200.000000 3326.000000,2236.000000 
"/>
<path fill="none" opacity="1.000000" stroke="#000000" stroke-linecap="round" stroke-linejoin="round" stroke-width="2.000000"
	d="
M4526.000000,2128.000000 
	C4526.000000,2164.000000 4526.000000,2200.000000 4526.000000,2236.000000 
"/>
<path fill="none" opacity="1.000000" stroke="#000000" stroke-linecap="round" stroke-linejoin="round" stroke-width="2.000000"
	d="
M2926.000000,2528.000000 
	C2926.000000,2563.333252 2926.000000,2598.666748 2926.000000,2634.000000 
"/>
<path fill="none" opacity="1.000000" stroke="#000000" stroke-linecap="round" stroke-linejoin="round" stroke-width="2.000000"
	d="
M2526.000000,2528.000000 
	C2526.000000,2563.333252 2526.000000,2598.666748 2526.000000,2634.000000 
"/>
<path fill="none" opacity="1.000000" stroke="#000000" stroke-linecap="round" stroke-linejoin="round" stroke-width="2.000000"
	d="
M3326.000000,2528.000000 
	C3326.000000,2563.333252 3326.000000,2598.666748 3326.000000,2634.000000 
"/>
<path fill="none" opacity="1.000000" stroke="#000000" stroke-linecap="round" stroke-linejoin="round" stroke-width="2.000000"
	d="
M4708.000000,2830.000000 
	C4735.248535,2835.217285 4761.423340,2844.340088 4787.484863,2852.458496 
	C4789.157227,2848.764893 4790.833496,2845.633301 4790.000000,2842.000000 
"/>
<path fill="none" opacity="1.000000" stroke="#000000" stroke-linecap="round" stroke-linejoin="round" stroke-width="2.000000"
	d="
M2708.000000,2830.000000 
	C2735.248535,2835.217285 2761.423096,2844.340088 2787.484619,2852.458496 
	C2789.157471,2848.764893 2790.833496,2845.633301 2790.000000,2842.000000 
"/>
<path fill="none" opacity="1.000000" stroke="#000000" stroke-linecap="round" stroke-linejoin="round" stroke-width="2.000000"
	d="
M4518.000000,2830.000000 
	C4487.456055,2833.562012 4459.323242,2845.963623 4430.000000,2854.000000 
"/>
<path fill="none" opacity="1.000000" stroke="#000000" stroke-linecap="round" stroke-linejoin="round" stroke-width="2.000000"
	d="
M2518.000000,2830.000000 
	C2487.456299,2833.562012 2459.323486,2845.963623 2430.000000,2854.000000 
"/>
<path fill="none" opacity="1.000000" stroke="#000000" stroke-linecap="round" stroke-linejoin="round" stroke-width="2.000000"
	d="
M3234.000000,3022.000000 
	C3234.000000,2973.296875 3234.000000,2924.593506 3234.000000,2876.000000 
	C3349.333252,2876.000000 3468.666748,2876.000000 3590.000000,2876.000000 
	C3590.000000,2952.655029 3590.000000,3029.327637 3590.000000,3106.000000 
"/>
<path fill="none" opacity="1.000000" stroke="#000000" stroke-linecap="round" stroke-linejoin="round" stroke-width="2.000000"
	d="
M4030.000000,2874.000000 
	C4056.404785,2880.571045 4083.313721,2877.669922 4110.000977,2877.858398 
	C4172.664551,2878.301025 4235.333496,2878.000000 4298.000000,2878.000000 
	C4328.013672,2878.000000 4358.027344,2878.000000 4390.000000,2878.000000 
	C4390.000000,2952.655029 4390.000000,3029.327637 4390.000000,3106.000000 
"/>
<path fill="none" opacity="1.000000" stroke="#000000" stroke-linecap="round" stroke-linejoin="round" stroke-width="2.000000"
	d="
M4654.000000,2058.000000 
	C4654.000000,2117.333252 4654.000000,2176.666748 4654.000000,2236.000000 
"/>
<path fill="none" opacity="1.000000" stroke="#000000" stroke-linecap="round" stroke-linejoin="round" stroke-width="2.000000"
	d="
M3454.000000,2096.000000 
	C3454.000000,2142.666748 3454.000000,2189.333252 3454.000000,2236.000000 
"/>
<path fill="none" opacity="1.000000" stroke="#000000" stroke-linecap="round" stroke-linejoin="round" stroke-width="2.000000"
	d="
M4254.000000,2058.000000 
	C4254.000000,2117.333252 4254.000000,2176.666748 4254.000000,2236.000000 
"/>
<path fill="none" opacity="1.000000" stroke="#000000" stroke-linecap="round" stroke-linejoin="round" stroke-width="2.000000"
	d="
M3854.000000,2058.000000 
	C3854.000000,2117.333252 3854.000000,2176.666748 3854.000000,2236.000000 
"/>
<path fill="none" opacity="1.000000" stroke="#000000" stroke-linecap="round" stroke-linejoin="round" stroke-width="2.000000"
	d="
M2654.000000,2496.000000 
	C2654.000000,2542.666748 2654.000000,2589.333252 2654.000000,2636.000000 
"/>
<path fill="none" opacity="1.000000" stroke="#000000" stroke-linecap="round" stroke-linejoin="round" stroke-width="2.000000"
	d="
M3054.000000,2496.000000 
	C3054.000000,2542.666748 3054.000000,2589.333252 3054.000000,2636.000000 
"/>
<path fill="none" opacity="1.000000" stroke="#000000" stroke-linecap="round" stroke-linejoin="round" stroke-width="2.000000"
	d="
M3054.000000,2096.000000 
	C3054.000000,2142.666748 3054.000000,2189.333252 3054.000000,2236.000000 
"/>
<path fill="none" opacity="1.000000" stroke="#000000" stroke-linecap="round" stroke-linejoin="round" stroke-width="2.000000"
	d="
M3454.000000,2458.000000 
	C3454.000000,2517.333252 3454.000000,2576.666748 3454.000000,2636.000000 
"/>
<path fill="none" opacity="1.000000" stroke="#000000" stroke-linecap="round" stroke-linejoin="round" stroke-width="2.000000"
	d="
M3854.000000,2458.000000 
	C3854.000000,2517.333252 3854.000000,2576.666748 3854.000000,2636.000000 
"/>
<path fill="none" opacity="1.000000" stroke="#000000" stroke-linecap="round" stroke-linejoin="round" stroke-width="2.000000"
	d="
M4254.000000,2458.000000 
	C4254.000000,2517.333252 4254.000000,2576.666748 4254.000000,2636.000000 
"/>
<path fill="none" opacity="1.000000" stroke="#000000" stroke-linecap="round" stroke-linejoin="round" stroke-width="2.000000"
	d="
M4654.000000,2458.000000 
	C4654.000000,2517.333252 4654.000000,2576.666748 4654.000000,2636.000000 
"/>
<path fill="none" opacity="1.000000" stroke="#000000" stroke-linecap="round" stroke-linejoin="round" stroke-width="2.000000"
	d="
M2654.000000,2096.000000 
	C2654.000000,2142.666748 2654.000000,2189.333252 2654.000000,2236.000000 
"/>
<path fill="none" opacity="1.000000" stroke="#000000" stroke-linecap="round" stroke-linejoin="round" stroke-width="2.000000"
	d="
M4788.000000,2880.000000 
	C4791.250000,2902.666748 4791.250000,2925.333252 4788.000000,2948.000000 
"/>
<path fill="none" opacity="1.000000" stroke="#000000" stroke-linecap="round" stroke-linejoin="round" stroke-width="2.000000"
	d="
M2788.000000,2880.000000 
	C2791.250244,2902.666748 2791.250244,2925.333252 2788.000000,2948.000000 
"/>
<path fill="none" opacity="1.000000" stroke="#000000" stroke-linecap="round" stroke-linejoin="round" stroke-width="2.000000"
	d="
M3640.000000,2950.000000 
	C3751.328857,2948.601074 3862.686279,2952.389893 3974.020996,2948.618408 
	C3976.692383,2948.527832 3983.162109,2947.179932 3986.000000,2952.000000 
"/>
<path fill="none" opacity="1.000000" stroke="#000000" stroke-linecap="round" stroke-linejoin="round" stroke-width="2.000000"
	d="
M3240.000000,2950.000000 
	C3351.328857,2948.601074 3462.686279,2952.389648 3574.020996,2948.618164 
	C3576.692383,2948.527588 3583.162109,2947.179932 3586.000000,2952.000000 
"/>
<path fill="none" opacity="1.000000" stroke="#000000" stroke-linecap="round" stroke-linejoin="round" stroke-width="3.000000"
	d="
M3352.000000,3036.000000 
	C3351.848877,3066.677979 3352.719482,3097.376465 3350.033936,3128.002930 
	C3349.782959,3130.866455 3349.326904,3134.226562 3354.000000,3134.000000 
"/>
<path fill="none" opacity="1.000000" stroke="#000000" stroke-linecap="round" stroke-linejoin="round" stroke-width="2.000000"
	d="
M3728.000000,2090.000000 
	C3769.032715,2090.425293 3769.367432,2090.420898 3769.899902,2130.001465 
	C3770.375000,2165.328125 3770.000000,2200.666748 3770.000000,2236.000000 
"/>
<path fill="none" opacity="1.000000" stroke="#000000" stroke-linecap="round" stroke-linejoin="round" stroke-width="2.000000"
	d="
M4528.000000,2090.000000 
	C4569.032715,2090.425293 4569.367188,2090.420898 4569.899414,2130.001465 
	C4570.375000,2165.328125 4570.000000,2200.666748 4570.000000,2236.000000 
"/>
<path fill="none" opacity="1.000000" stroke="#000000" stroke-linecap="round" stroke-linejoin="round" stroke-width="2.000000"
	d="
M4128.000000,2090.000000 
	C4169.032715,2090.425293 4169.367188,2090.420898 4169.899414,2130.001465 
	C4170.375000,2165.328125 4170.000000,2200.666748 4170.000000,2236.000000 
"/>
<path fill="none" opacity="1.000000" stroke="#000000" stroke-linecap="round" stroke-linejoin="round" stroke-width="2.000000"
	d="
M2870.000000,3174.000000 
	C2856.666748,3174.000000 2843.333252,3174.000000 2830.000000,3174.000000 
"/>
<path fill="none" opacity="1.000000" stroke="#000000" stroke-linecap="round" stroke-linejoin="round" stroke-width="2.000000"
	d="
M3534.000000,2490.000000 
	C3493.333252,2490.000000 3452.666748,2490.000000 3412.000000,2490.000000 
"/>
<path fill="none" opacity="1.000000" stroke="#000000" stroke-linecap="round" stroke-linejoin="round" stroke-width="2.000000"
	d="
M3412.000000,2094.000000 
	C3407.572266,2141.280273 3411.416992,2188.677246 3410.000000,2236.000000 
"/>
<path fill="none" opacity="1.000000" stroke="#000000" stroke-linecap="round" stroke-linejoin="round" stroke-width="2.000000"
	d="
M4212.000000,2094.000000 
	C4207.572266,2141.280273 4211.416992,2188.677246 4210.000000,2236.000000 
"/>
<path fill="none" opacity="1.000000" stroke="#000000" stroke-linecap="round" stroke-linejoin="round" stroke-width="2.000000"
	d="
M3726.000000,2124.000000 
	C3726.000000,2113.333252 3726.000000,2102.666748 3726.000000,2089.540283 
	C3712.666748,2091.346924 3699.333252,2087.570068 3686.000000,2092.000000 
"/>
<path fill="none" opacity="1.000000" stroke="#000000" stroke-linecap="round" stroke-linejoin="round" stroke-width="2.000000"
	d="
M4126.000000,2124.000000 
	C4126.000000,2113.333252 4126.000000,2102.666748 4126.000000,2089.540283 
	C4112.666504,2091.346924 4099.333496,2087.570068 4086.000000,2092.000000 
"/>
<path fill="none" opacity="1.000000" stroke="#000000" stroke-linecap="round" stroke-linejoin="round" stroke-width="2.000000"
	d="
M3812.000000,2094.000000 
	C3807.572266,2141.280273 3811.416992,2188.677246 3810.000000,2236.000000 
"/>
<path fill="none" opacity="1.000000" stroke="#000000" stroke-linecap="round" stroke-linejoin="round" stroke-width="2.000000"
	d="
M2526.000000,2124.000000 
	C2526.000000,2113.333252 2526.000000,2102.666748 2526.000000,2089.540283 
	C2512.666748,2091.346924 2499.333252,2087.570068 2486.000000,2092.000000 
"/>
<path fill="none" opacity="1.000000" stroke="#000000" stroke-linecap="round" stroke-linejoin="round" stroke-width="2.000000"
	d="
M3370.000000,2058.000000 
	C3370.000000,2117.333252 3370.000000,2176.666748 3370.000000,2236.000000 
"/>
<path fill="none" opacity="1.000000" stroke="#000000" stroke-linecap="round" stroke-linejoin="round" stroke-width="2.000000"
	d="
M3012.000000,2094.000000 
	C3007.572266,2141.280273 3011.416992,2188.677246 3010.000000,2236.000000 
"/>
<path fill="none" opacity="1.000000" stroke="#000000" stroke-linecap="round" stroke-linejoin="round" stroke-width="2.000000"
	d="
M2970.000000,2058.000000 
	C2970.000000,2117.333252 2970.000000,2176.666748 2970.000000,2236.000000 
"/>
<path fill="none" opacity="1.000000" stroke="#000000" stroke-linecap="round" stroke-linejoin="round" stroke-width="2.000000"
	d="
M2612.000000,2094.000000 
	C2607.572266,2141.280273 2611.416992,2188.677246 2610.000000,2236.000000 
"/>
<path fill="none" opacity="1.000000" stroke="#000000" stroke-linecap="round" stroke-linejoin="round" stroke-width="2.000000"
	d="
M2570.000000,2058.000000 
	C2570.000000,2117.333252 2570.000000,2176.666748 2570.000000,2236.000000 
"/>
<path fill="none" opacity="1.000000" stroke="#000000" stroke-linecap="round" stroke-linejoin="round" stroke-width="2.000000"
	d="
M3770.000000,2496.000000 
	C3770.000000,2542.666748 3770.000000,2589.333252 3770.000000,2636.000000 
"/>
<path fill="none" opacity="1.000000" stroke="#000000" stroke-linecap="round" stroke-linejoin="round" stroke-width="2.000000"
	d="
M3812.000000,2494.000000 
	C3807.572266,2541.280273 3811.416992,2588.677246 3810.000000,2636.000000 
"/>
<path fill="none" opacity="1.000000" stroke="#000000" stroke-linecap="round" stroke-linejoin="round" stroke-width="2.000000"
	d="
M3328.000000,2490.000000 
	C3354.666748,2490.000000 3381.333252,2490.000000 3410.000000,2490.000000 
	C3410.000000,2538.648438 3410.000000,2587.324219 3410.000000,2636.000000 
"/>
<path fill="none" opacity="1.000000" stroke="#000000" stroke-linecap="round" stroke-linejoin="round" stroke-width="2.000000"
	d="
M3370.000000,2458.000000 
	C3370.000000,2517.333252 3370.000000,2576.666748 3370.000000,2636.000000 
"/>
<path fill="none" opacity="1.000000" stroke="#000000" stroke-linecap="round" stroke-linejoin="round" stroke-width="2.000000"
	d="
M2928.000000,2490.000000 
	C2954.666748,2490.000000 2981.333252,2490.000000 3010.000000,2490.000000 
	C3010.000000,2538.648438 3010.000000,2587.324219 3010.000000,2636.000000 
"/>
<path fill="none" opacity="1.000000" stroke="#000000" stroke-linecap="round" stroke-linejoin="round" stroke-width="2.000000"
	d="
M2970.000000,2458.000000 
	C2970.000000,2517.333252 2970.000000,2576.666748 2970.000000,2636.000000 
"/>
<path fill="none" opacity="1.000000" stroke="#000000" stroke-linecap="round" stroke-linejoin="round" stroke-width="2.000000"
	d="
M2528.000000,2490.000000 
	C2554.666748,2490.000000 2581.333252,2490.000000 2610.000000,2490.000000 
	C2610.000000,2538.648438 2610.000000,2587.324219 2610.000000,2636.000000 
"/>
<path fill="none" opacity="1.000000" stroke="#000000" stroke-linecap="round" stroke-linejoin="round" stroke-width="2.000000"
	d="
M2570.000000,2458.000000 
	C2570.000000,2517.333252 2570.000000,2576.666748 2570.000000,2636.000000 
"/>
<path fill="none" opacity="1.000000" stroke="#000000" stroke-linecap="round" stroke-linejoin="round" stroke-width="2.000000"
	d="
M3326.000000,2124.000000 
	C3326.000000,2113.333252 3326.000000,2102.666748 3326.000000,2089.540283 
	C3312.666748,2091.346924 3299.333252,2087.570068 3286.000000,2092.000000 
"/>
<path fill="none" opacity="1.000000" stroke="#000000" stroke-linecap="round" stroke-linejoin="round" stroke-width="2.000000"
	d="
M4170.000000,2496.000000 
	C4170.000000,2542.666748 4170.000000,2589.333252 4170.000000,2636.000000 
"/>
<path fill="none" opacity="1.000000" stroke="#000000" stroke-linecap="round" stroke-linejoin="round" stroke-width="2.000000"
	d="
M4212.000000,2494.000000 
	C4207.572266,2541.280273 4211.416992,2588.677246 4210.000000,2636.000000 
"/>
<path fill="none" opacity="1.000000" stroke="#000000" stroke-linecap="round" stroke-linejoin="round" stroke-width="2.000000"
	d="
M4570.000000,2496.000000 
	C4570.000000,2542.666748 4570.000000,2589.333252 4570.000000,2636.000000 
"/>
<path fill="none" opacity="1.000000" stroke="#000000" stroke-linecap="round" stroke-linejoin="round" stroke-width="2.000000"
	d="
M4612.000000,2494.000000 
	C4607.572266,2541.280273 4611.416992,2588.677246 4610.000000,2636.000000 
"/>
<path fill="none" opacity="1.000000" stroke="#000000" stroke-linecap="round" stroke-linejoin="round" stroke-width="2.000000"
	d="
M2926.000000,2124.000000 
	C2926.000000,2113.333252 2926.000000,2102.666748 2926.000000,2089.540283 
	C2912.666748,2091.346924 2899.333252,2087.570068 2886.000000,2092.000000 
"/>
<path fill="none" opacity="1.000000" stroke="#000000" stroke-linecap="round" stroke-linejoin="round" stroke-width="2.000000"
	d="
M4526.000000,2124.000000 
	C4526.000000,2113.333252 4526.000000,2102.666748 4526.000000,2089.540283 
	C4512.666504,2091.346924 4499.333496,2087.570068 4486.000000,2092.000000 
"/>
<path fill="none" opacity="1.000000" stroke="#000000" stroke-linecap="round" stroke-linejoin="round" stroke-width="2.000000"
	d="
M4612.000000,2094.000000 
	C4607.572266,2141.280273 4611.416992,2188.677246 4610.000000,2236.000000 
"/>
<path fill="none" opacity="1.000000" stroke="#000000" stroke-linecap="round" stroke-linejoin="round" stroke-width="2.000000"
	d="
M3448.000000,2090.000000 
	C3408.000000,2090.000000 3368.000000,2090.000000 3328.000000,2090.000000 
"/>
<path fill="none" opacity="1.000000" stroke="#000000" stroke-linecap="round" stroke-linejoin="round" stroke-width="2.000000"
	d="
M3048.000000,2090.000000 
	C3008.000000,2090.000000 2968.000000,2090.000000 2928.000000,2090.000000 
"/>
<path fill="none" opacity="1.000000" stroke="#000000" stroke-linecap="round" stroke-linejoin="round" stroke-width="2.000000"
	d="
M2648.000000,2090.000000 
	C2608.000000,2090.000000 2568.000000,2090.000000 2528.000000,2090.000000 
"/>
<path fill="none" opacity="1.000000" stroke="#000000" stroke-linecap="round" stroke-linejoin="round" stroke-width="2.000000"
	d="
M2648.000000,2490.000000 
	C2636.000000,2490.000000 2624.000000,2490.000000 2612.000000,2490.000000 
"/>
<path fill="none" opacity="1.000000" stroke="#000000" stroke-linecap="round" stroke-linejoin="round" stroke-width="2.000000"
	d="
M3048.000000,2490.000000 
	C3036.000000,2490.000000 3024.000000,2490.000000 3012.000000,2490.000000 
"/>
<path fill="none" opacity="1.000000" stroke="#000000" stroke-linecap="round" stroke-linejoin="round" stroke-width="2.000000"
	d="
M3764.000000,2490.000000 
	C3752.000000,2490.000000 3740.000000,2490.000000 3728.000000,2490.000000 
"/>
<path fill="none" opacity="1.000000" stroke="#000000" stroke-linecap="round" stroke-linejoin="round" stroke-width="2.000000"
	d="
M4564.000000,2490.000000 
	C4552.000000,2490.000000 4540.000000,2490.000000 4528.000000,2490.000000 
"/>
<path fill="none" opacity="1.000000" stroke="#000000" stroke-linecap="round" stroke-linejoin="round" stroke-width="2.000000"
	d="
M4164.000000,2490.000000 
	C4152.000000,2490.000000 4140.000000,2490.000000 4128.000000,2490.000000 
"/>
<path fill="none" opacity="1.000000" stroke="#000000" stroke-linecap="round" stroke-linejoin="round" stroke-width="2.000000"
	d="
M3234.000000,3036.000000 
	C3234.000000,3058.000000 3234.000000,3080.000000 3234.000000,3102.000000 
"/>
<path fill="none" opacity="1.000000" stroke="#000000" stroke-linecap="round" stroke-linejoin="round" stroke-width="2.000000"
	d="
M3190.000000,3082.000000 
	C3190.000000,3090.000000 3190.000000,3098.000000 3190.000000,3106.000000 
"/>
<path fill="none" opacity="1.000000" stroke="#000000" stroke-linecap="round" stroke-linejoin="round" stroke-width="2.000000"
	d="
M3060.000000,2490.000000 
	C3084.666748,2490.000000 3109.333252,2490.000000 3134.000000,2490.000000 
"/>
<path fill="none" opacity="1.000000" stroke="#000000" stroke-linecap="round" stroke-linejoin="round" stroke-width="2.000000"
	d="
M2734.000000,2090.000000 
	C2709.333252,2090.000000 2684.666748,2090.000000 2660.000000,2090.000000 
"/>
<path fill="none" opacity="1.000000" stroke="#000000" stroke-linecap="round" stroke-linejoin="round" stroke-width="2.000000"
	d="
M4334.000000,2090.000000 
	C4279.991699,2090.000000 4225.983398,2090.000000 4170.000000,2090.000000 
	C4170.000000,2078.086914 4170.000000,2068.043457 4170.000000,2058.000000 
"/>
<path fill="none" opacity="1.000000" stroke="#000000" stroke-linecap="round" stroke-linejoin="round" stroke-width="2.000000"
	d="
M4334.000000,2490.000000 
	C4281.333496,2490.000000 4228.666504,2490.000000 4176.000000,2490.000000 
"/>
<path fill="none" opacity="1.000000" stroke="#000000" stroke-linecap="round" stroke-linejoin="round" stroke-width="2.000000"
	d="
M2660.000000,2490.000000 
	C2684.666748,2490.000000 2709.333252,2490.000000 2734.000000,2490.000000 
"/>
<path fill="none" opacity="1.000000" stroke="#000000" stroke-linecap="round" stroke-linejoin="round" stroke-width="2.000000"
	d="
M3060.000000,2090.000000 
	C3084.666748,2090.000000 3109.333252,2090.000000 3134.000000,2090.000000 
"/>
<path fill="none" opacity="1.000000" stroke="#000000" stroke-linecap="round" stroke-linejoin="round" stroke-width="2.000000"
	d="
M4570.000000,2058.000000 
	C4570.000000,2068.043457 4570.000000,2078.086914 4570.000000,2090.000000 
	C4625.983398,2090.000000 4679.991699,2090.000000 4734.000000,2090.000000 
"/>
<path fill="none" opacity="1.000000" stroke="#000000" stroke-linecap="round" stroke-linejoin="round" stroke-width="2.000000"
	d="
M3934.000000,2490.000000 
	C3881.333252,2490.000000 3828.666748,2490.000000 3776.000000,2490.000000 
"/>
<path fill="none" opacity="1.000000" stroke="#000000" stroke-linecap="round" stroke-linejoin="round" stroke-width="2.000000"
	d="
M3534.000000,2090.000000 
	C3509.333252,2090.000000 3484.666748,2090.000000 3460.000000,2090.000000 
"/>
<path fill="none" opacity="1.000000" stroke="#000000" stroke-linecap="round" stroke-linejoin="round" stroke-width="2.000000"
	d="
M3770.000000,2058.000000 
	C3770.000000,2068.043457 3770.000000,2078.086914 3770.000000,2090.000000 
	C3825.983643,2090.000000 3879.991699,2090.000000 3934.000000,2090.000000 
"/>
<path fill="none" opacity="1.000000" stroke="#000000" stroke-linecap="round" stroke-linejoin="round" stroke-width="2.000000"
	d="
M4734.000000,2490.000000 
	C4681.333496,2490.000000 4628.666504,2490.000000 4576.000000,2490.000000 
"/>
<path fill="none" opacity="1.000000" stroke="#000000" stroke-linecap="round" stroke-linejoin="round" stroke-width="2.000000"
	d="
M3190.000000,3046.000000 
	C3190.000000,3052.666748 3190.000000,3059.333252 3190.000000,3066.000000 
"/>
<path fill="none" opacity="1.000000" stroke="#000000" stroke-linecap="round" stroke-linejoin="round" stroke-width="2.000000"
	d="
M4790.000000,2874.000000 
	C4778.805176,2882.580811 4765.706543,2877.514893 4754.001953,2877.471436 
	C4651.335938,2877.091064 4548.654785,2879.587158 4445.976562,2876.884033 
	C4439.907227,2876.723877 4435.852051,2870.515381 4430.000000,2874.000000 
"/>
<path fill="none" opacity="1.000000" stroke="#000000" stroke-linecap="round" stroke-linejoin="round" stroke-width="2.000000"
	d="
M3010.000000,2876.000000 
	C2966.713135,2879.682373 2923.331543,2877.215576 2879.998779,2877.924072 
	C2863.248291,2878.197998 2846.367432,2879.074463 2830.000000,2874.000000 
"/>
<path fill="none" opacity="1.000000" stroke="#000000" stroke-linecap="round" stroke-linejoin="round" stroke-width="2.000000"
	d="
M2610.000000,2876.000000 
	C2566.715576,2879.843994 2523.330322,2877.099609 2479.998535,2877.917236 
	C2463.250000,2878.233398 2446.367432,2879.074463 2430.000000,2874.000000 
"/>
<path fill="none" opacity="1.000000" stroke="#000000" stroke-linecap="round" stroke-linejoin="round" stroke-width="2.000000"
	d="
M4694.000000,2830.000000 
	C4690.302246,2822.123535 4683.237305,2827.717529 4678.000000,2826.000000 
"/>
<path fill="none" opacity="1.000000" stroke="#000000" stroke-linecap="round" stroke-linejoin="round" stroke-width="2.000000"
	d="
M4546.000000,2826.000000 
	C4540.762695,2827.717529 4533.697754,2822.123535 4530.000000,2830.000000 
"/>
<path fill="none" opacity="1.000000" stroke="#000000" stroke-linecap="round" stroke-linejoin="round" stroke-width="2.000000"
	d="
M2694.000000,2830.000000 
	C2690.302490,2822.123535 2683.237305,2827.717529 2678.000000,2826.000000 
"/>
<path fill="none" opacity="1.000000" stroke="#000000" stroke-linecap="round" stroke-linejoin="round" stroke-width="2.000000"
	d="
M2790.000000,2874.000000 
	C2776.653809,2882.197754 2761.898926,2877.145264 2747.986816,2877.569824 
	C2708.024170,2878.789307 2668.000000,2878.000000 2628.000000,2878.000000 
"/>
<path fill="none" opacity="1.000000" stroke="#000000" stroke-linecap="round" stroke-linejoin="round" stroke-width="2.000000"
	d="
M3096.000000,2528.000000 
	C3098.842285,2532.355957 3097.775146,2537.270264 3098.000000,2542.000000 
"/>
<path fill="none" opacity="1.000000" stroke="#000000" stroke-linecap="round" stroke-linejoin="round" stroke-width="2.000000"
	d="
M4170.000000,2458.000000 
	C4170.000000,2467.333252 4170.000000,2476.666748 4170.000000,2486.000000 
"/>
<path fill="none" opacity="1.000000" stroke="#000000" stroke-linecap="round" stroke-linejoin="round" stroke-width="2.000000"
	d="
M2696.000000,2528.000000 
	C2698.842285,2532.355957 2697.775146,2537.270264 2698.000000,2542.000000 
"/>
<path fill="none" opacity="1.000000" stroke="#000000" stroke-linecap="round" stroke-linejoin="round" stroke-width="2.000000"
	d="
M4570.000000,2458.000000 
	C4570.000000,2467.333252 4570.000000,2476.666748 4570.000000,2486.000000 
"/>
<path fill="none" opacity="1.000000" stroke="#000000" stroke-linecap="round" stroke-linejoin="round" stroke-width="2.000000"
	d="
M2654.000000,2458.000000 
	C2654.000000,2467.333252 2654.000000,2476.666748 2654.000000,2486.000000 
"/>
<path fill="none" opacity="1.000000" stroke="#000000" stroke-linecap="round" stroke-linejoin="round" stroke-width="2.000000"
	d="
M2696.000000,2128.000000 
	C2698.842285,2132.355957 2697.775146,2137.270264 2698.000000,2142.000000 
"/>
<path fill="none" opacity="1.000000" stroke="#000000" stroke-linecap="round" stroke-linejoin="round" stroke-width="2.000000"
	d="
M2532.000000,2950.000000 
	C2544.000000,2950.000000 2556.000000,2950.000000 2568.000000,2950.000000 
"/>
<path fill="none" opacity="1.000000" stroke="#000000" stroke-linecap="round" stroke-linejoin="round" stroke-width="2.000000"
	d="
M2600.000000,2950.000000 
	C2612.000000,2950.000000 2624.000000,2950.000000 2636.000000,2950.000000 
"/>
<path fill="none" opacity="1.000000" stroke="#000000" stroke-linecap="round" stroke-linejoin="round" stroke-width="2.000000"
	d="
M2708.000000,2950.000000 
	C2720.000000,2950.000000 2732.000000,2950.000000 2744.000000,2950.000000 
"/>
<path fill="none" opacity="1.000000" stroke="#000000" stroke-linecap="round" stroke-linejoin="round" stroke-width="2.000000"
	d="
M4640.000000,2950.000000 
	C4661.333496,2950.000000 4682.666504,2950.000000 4704.000000,2950.000000 
"/>
<path fill="none" opacity="1.000000" stroke="#000000" stroke-linecap="round" stroke-linejoin="round" stroke-width="2.000000"
	d="
M4532.000000,2950.000000 
	C4544.000000,2950.000000 4556.000000,2950.000000 4568.000000,2950.000000 
"/>
<path fill="none" opacity="1.000000" stroke="#000000" stroke-linecap="round" stroke-linejoin="round" stroke-width="2.000000"
	d="
M4464.000000,2950.000000 
	C4485.333496,2950.000000 4506.666504,2950.000000 4528.000000,2950.000000 
"/>
<path fill="none" opacity="1.000000" stroke="#000000" stroke-linecap="round" stroke-linejoin="round" stroke-width="2.000000"
	d="
M2932.000000,2950.000000 
	C2944.000000,2950.000000 2956.000000,2950.000000 2968.000000,2950.000000 
"/>
<path fill="none" opacity="1.000000" stroke="#000000" stroke-linecap="round" stroke-linejoin="round" stroke-width="2.000000"
	d="
M3000.000000,2950.000000 
	C3012.000000,2950.000000 3024.000000,2950.000000 3036.000000,2950.000000 
"/>
<path fill="none" opacity="1.000000" stroke="#000000" stroke-linecap="round" stroke-linejoin="round" stroke-width="2.000000"
	d="
M3770.000000,2458.000000 
	C3770.000000,2467.333252 3770.000000,2476.666748 3770.000000,2486.000000 
"/>
<path fill="none" opacity="1.000000" stroke="#000000" stroke-linecap="round" stroke-linejoin="round" stroke-width="2.000000"
	d="
M3108.000000,2950.000000 
	C3120.000000,2950.000000 3132.000000,2950.000000 3144.000000,2950.000000 
"/>
<path fill="none" opacity="1.000000" stroke="#000000" stroke-linecap="round" stroke-linejoin="round" stroke-width="2.000000"
	d="
M2654.000000,2058.000000 
	C2654.000000,2067.333252 2654.000000,2076.666748 2654.000000,2086.000000 
"/>
<path fill="none" opacity="1.000000" stroke="#000000" stroke-linecap="round" stroke-linejoin="round" stroke-width="2.000000"
	d="
M4308.000000,2950.000000 
	C4320.000000,2950.000000 4332.000000,2950.000000 4344.000000,2950.000000 
"/>
<path fill="none" opacity="1.000000" stroke="#000000" stroke-linecap="round" stroke-linejoin="round" stroke-width="2.000000"
	d="
M4132.000000,2950.000000 
	C4144.000000,2950.000000 4156.000000,2950.000000 4168.000000,2950.000000 
"/>
<path fill="none" opacity="1.000000" stroke="#000000" stroke-linecap="round" stroke-linejoin="round" stroke-width="2.000000"
	d="
M3096.000000,2128.000000 
	C3098.842285,2132.355957 3097.775146,2137.270264 3098.000000,2142.000000 
"/>
<path fill="none" opacity="1.000000" stroke="#000000" stroke-linecap="round" stroke-linejoin="round" stroke-width="2.000000"
	d="
M3054.000000,2458.000000 
	C3054.000000,2467.333252 3054.000000,2476.666748 3054.000000,2486.000000 
"/>
<path fill="none" opacity="1.000000" stroke="#000000" stroke-linecap="round" stroke-linejoin="round" stroke-width="2.000000"
	d="
M3054.000000,2058.000000 
	C3054.000000,2067.333252 3054.000000,2076.666748 3054.000000,2086.000000 
"/>
<path fill="none" opacity="1.000000" stroke="#000000" stroke-linecap="round" stroke-linejoin="round" stroke-width="2.000000"
	d="
M4708.000000,2950.000000 
	C4720.000000,2950.000000 4732.000000,2950.000000 4744.000000,2950.000000 
"/>
<path fill="none" opacity="1.000000" stroke="#000000" stroke-linecap="round" stroke-linejoin="round" stroke-width="2.000000"
	d="
M3454.000000,2058.000000 
	C3454.000000,2067.333252 3454.000000,2076.666748 3454.000000,2086.000000 
"/>
<path fill="none" opacity="1.000000" stroke="#000000" stroke-linecap="round" stroke-linejoin="round" stroke-width="2.000000"
	d="
M2704.000000,2950.000000 
	C2682.666748,2950.000000 2661.333252,2950.000000 2640.000000,2950.000000 
"/>
<path fill="none" opacity="1.000000" stroke="#000000" stroke-linecap="round" stroke-linejoin="round" stroke-width="2.000000"
	d="
M2596.000000,2950.000000 
	C2588.000000,2950.000000 2580.000000,2950.000000 2572.000000,2950.000000 
"/>
<path fill="none" opacity="1.000000" stroke="#000000" stroke-linecap="round" stroke-linejoin="round" stroke-width="2.000000"
	d="
M2464.000000,2950.000000 
	C2485.333252,2950.000000 2506.666748,2950.000000 2528.000000,2950.000000 
"/>
<path fill="none" opacity="1.000000" stroke="#000000" stroke-linecap="round" stroke-linejoin="round" stroke-width="2.000000"
	d="
M4772.000000,2950.000000 
	C4764.000000,2950.000000 4756.000000,2950.000000 4748.000000,2950.000000 
"/>
<path fill="none" opacity="1.000000" stroke="#000000" stroke-linecap="round" stroke-linejoin="round" stroke-width="2.000000"
	d="
M3104.000000,2950.000000 
	C3082.666748,2950.000000 3061.333252,2950.000000 3040.000000,2950.000000 
"/>
<path fill="none" opacity="1.000000" stroke="#000000" stroke-linecap="round" stroke-linejoin="round" stroke-width="2.000000"
	d="
M4304.000000,2950.000000 
	C4282.666504,2950.000000 4261.333496,2950.000000 4240.000000,2950.000000 
"/>
<path fill="none" opacity="1.000000" stroke="#000000" stroke-linecap="round" stroke-linejoin="round" stroke-width="2.000000"
	d="
M4200.000000,2950.000000 
	C4212.000000,2950.000000 4224.000000,2950.000000 4236.000000,2950.000000 
"/>
<path fill="none" opacity="1.000000" stroke="#000000" stroke-linecap="round" stroke-linejoin="round" stroke-width="2.000000"
	d="
M4196.000000,2950.000000 
	C4188.000000,2950.000000 4180.000000,2950.000000 4172.000000,2950.000000 
"/>
<path fill="none" opacity="1.000000" stroke="#000000" stroke-linecap="round" stroke-linejoin="round" stroke-width="2.000000"
	d="
M4064.000000,2950.000000 
	C4085.333252,2950.000000 4106.666504,2950.000000 4128.000000,2950.000000 
"/>
<path fill="none" opacity="1.000000" stroke="#000000" stroke-linecap="round" stroke-linejoin="round" stroke-width="2.000000"
	d="
M4372.000000,2950.000000 
	C4364.000000,2950.000000 4356.000000,2950.000000 4348.000000,2950.000000 
"/>
<path fill="none" opacity="1.000000" stroke="#000000" stroke-linecap="round" stroke-linejoin="round" stroke-width="2.000000"
	d="
M3172.000000,2950.000000 
	C3164.000000,2950.000000 3156.000000,2950.000000 3148.000000,2950.000000 
"/>
<path fill="none" opacity="1.000000" stroke="#000000" stroke-linecap="round" stroke-linejoin="round" stroke-width="2.000000"
	d="
M2996.000000,2950.000000 
	C2988.000000,2950.000000 2980.000000,2950.000000 2972.000000,2950.000000 
"/>
<path fill="none" opacity="1.000000" stroke="#000000" stroke-linecap="round" stroke-linejoin="round" stroke-width="2.000000"
	d="
M2864.000000,2950.000000 
	C2885.333252,2950.000000 2906.666748,2950.000000 2928.000000,2950.000000 
"/>
<path fill="none" opacity="1.000000" stroke="#000000" stroke-linecap="round" stroke-linejoin="round" stroke-width="2.000000"
	d="
M4596.000000,2950.000000 
	C4588.000000,2950.000000 4580.000000,2950.000000 4572.000000,2950.000000 
"/>
<path fill="none" opacity="1.000000" stroke="#000000" stroke-linecap="round" stroke-linejoin="round" stroke-width="2.000000"
	d="
M4600.000000,2950.000000 
	C4612.000000,2950.000000 4624.000000,2950.000000 4636.000000,2950.000000 
"/>
<path fill="none" opacity="1.000000" stroke="#000000" stroke-linecap="round" stroke-linejoin="round" stroke-width="2.000000"
	d="
M2772.000000,2950.000000 
	C2764.000000,2950.000000 2756.000000,2950.000000 2748.000000,2950.000000 
"/>
<path fill="none" opacity="1.000000" stroke="#000000" stroke-linecap="round" stroke-linejoin="round" stroke-width="2.000000"
	d="
M4060.000000,2950.000000 
	C4053.333252,2949.548340 4046.666748,2953.251953 4040.000000,2950.000000 
"/>
<path fill="none" opacity="1.000000" stroke="#000000" stroke-linecap="round" stroke-linejoin="round" stroke-width="2.000000"
	d="
M4460.000000,2950.000000 
	C4453.333496,2949.548340 4446.666504,2953.251953 4440.000000,2950.000000 
"/>
<path fill="none" opacity="1.000000" stroke="#000000" stroke-linecap="round" stroke-linejoin="round" stroke-width="2.000000"
	d="
M2440.000000,2950.000000 
	C2446.666748,2950.000000 2453.333252,2950.000000 2460.000000,2950.000000 
"/>
<path fill="none" opacity="1.000000" stroke="#000000" stroke-linecap="round" stroke-linejoin="round" stroke-width="2.000000"
	d="
M2840.000000,2950.000000 
	C2846.666748,2950.000000 2853.333252,2950.000000 2860.000000,2950.000000 
"/>
<path fill="none" opacity="1.000000" stroke="#000000" stroke-linecap="round" stroke-linejoin="round" stroke-width="1.000000"
	d="
M2534.000000,2826.000000 
	C2531.143555,2825.810303 2529.810303,2827.143555 2530.000000,2830.000000 
"/>
</svg>